<?xml version="1.0" encoding="iso-8859-1"?>
<!-- Generator: Adobe Illustrator 19.0.0, SVG Export Plug-In . SVG Version: 6.00 Build 0)  -->
<svg version="1.1" id="Capa_1" xmlns="http://www.w3.org/2000/svg" xmlns:xlink="http://www.w3.org/1999/xlink" x="0px" y="0px"
	 viewBox="0 0 470 470" style="enable-background:new 0 0 470 470;" xml:space="preserve">
<g>
	<path style="fill:#E7453F;" d="M284.515,267.563c0-23.073,18.771-41.844,41.845-41.844c8.997,0,17.333,2.864,24.164,7.715
		c-4.38-10.432-13.711-19.259-24.833-19.259c-4.142,0-7.5-3.358-7.5-7.5s3.358-7.5,7.5-7.5c0.048,0,0.095,0.004,0.143,0.004
		c0.12-42.009,0.207-98.774,0-102.8c-0.292-3.544,1.951-6.817,5.378-7.815c12.893-3.754,21.556-15.576,21.556-29.417
		c0-16.897-13.747-30.645-30.645-30.645c-4.241,0-8.408,0.891-12.245,2.566c7.176,7.178,13.27,15.308,18.156,24.301
		c1.977,3.64,0.629,8.193-3.01,10.17c-1.137,0.618-2.364,0.911-3.573,0.911c-2.661,0-5.238-1.419-6.597-3.921
		c-5.69-10.474-13.275-19.598-22.535-27.142C276.186,22.242,255.859,15,235,15c-21.058,0-41.58,7.371-57.785,20.755
		c-9.057,7.48-16.48,16.487-22.069,26.775c-1.359,2.502-3.937,3.921-6.597,3.921c-1.209,0-2.436-0.293-3.573-0.911
		c-3.64-1.977-4.987-6.531-3.01-10.17c4.88-8.983,10.96-17.127,18.139-24.309c-3.832-1.669-7.994-2.558-12.228-2.558
		c-16.897,0-30.645,13.747-30.645,30.645c0,13.841,8.663,25.663,21.556,29.417c3.428,0.998,5.67,4.271,5.378,7.815
		c-0.207,4.026-0.12,60.792,0,102.8c0.048,0,0.095-0.004,0.143-0.004c4.142,0,7.5,3.358,7.5,7.5s-3.358,7.5-7.5,7.5
		c-11.122,0-20.452,8.827-24.833,19.259c6.831-4.851,15.167-7.715,24.164-7.715c23.073,0,41.845,18.771,41.845,41.844
		c0,22.889-18.475,41.534-41.295,41.831v23.11c0.04,0,0.079-0.003,0.119-0.003c4.142,0,7.5,3.358,7.5,7.5s-3.358,7.5-7.5,7.5
		c-15.17,0-27.513,12.342-27.513,27.513v8.457c9.151-9.072,21.734-14.686,35.607-14.686c25.356,0,46.412,18.745,50.048,43.104
		h65.097c3.636-24.359,24.692-43.104,50.048-43.104c13.873,0,26.456,5.614,35.607,14.686v-8.457
		c0-15.171-12.342-27.513-27.513-27.513c-4.142,0-7.5-3.358-7.5-7.5s3.358-7.5,7.5-7.5c0.04,0,0.079,0.003,0.119,0.003v-23.11
		C302.99,309.097,284.515,290.452,284.515,267.563z M235,115.028c4.142,0,7.5,3.358,7.5,7.5v18.288
		c5.556-1.198,10.798-3.708,15.23-7.36c3.197-2.634,7.924-2.178,10.558,1.019c2.634,3.197,2.178,7.924-1.019,10.558
		c-9.069,7.473-20.529,11.588-32.27,11.588s-23.201-4.115-32.27-11.588c-3.197-2.634-3.653-7.361-1.019-10.558
		c2.634-3.196,7.361-3.653,10.558-1.019c4.432,3.652,9.675,6.163,15.23,7.36v-18.288C227.5,118.386,230.858,115.028,235,115.028z
		 M163.364,81.188c7.54-21.941,25.14-39.542,47.082-47.082c3.917-1.346,8.184,0.738,9.53,4.655c1.346,3.917-0.738,8.184-4.655,9.53
		c-17.602,6.049-31.722,20.169-37.771,37.771c-1.068,3.11-3.979,5.064-7.092,5.064c-0.809,0-1.63-0.131-2.438-0.409
		C164.103,89.372,162.018,85.105,163.364,81.188z M235,383.786c-21.192,0-38.433-17.241-38.433-38.434c0-4.142,3.358-7.5,7.5-7.5
		s7.5,3.358,7.5,7.5c0,12.921,10.512,23.434,23.433,23.434s23.433-10.512,23.433-23.434c0-4.142,3.358-7.5,7.5-7.5
		s7.5,3.358,7.5,7.5C273.433,366.544,256.192,383.786,235,383.786z M196.567,315.352v-40.419c0-21.192,17.241-38.433,38.433-38.433
		c4.142,0,7.5,3.358,7.5,7.5s-3.358,7.5-7.5,7.5c-12.921,0-23.433,10.512-23.433,23.433v40.419c0,4.142-3.358,7.5-7.5,7.5
		S196.567,319.494,196.567,315.352z M235,211.62c-27.624,0-53.766-10.586-73.61-29.81c-2.975-2.882-3.051-7.63-0.168-10.605
		c2.881-2.975,7.63-3.051,10.605-0.168c17.031,16.498,39.466,25.583,63.173,25.583c23.708,0,46.143-9.086,63.173-25.583
		c2.976-2.882,7.723-2.806,10.605,0.168c2.882,2.975,2.807,7.723-0.168,10.605C288.767,201.033,262.625,211.62,235,211.62z"/>
	<path style="fill:#EC6A65;" d="M353.204,267.563c0-14.802-12.042-26.844-26.844-26.844c-14.802,0-26.845,12.042-26.845,26.844
		c0,14.802,12.042,26.845,26.845,26.845C341.161,294.408,353.204,282.365,353.204,267.563z"/>
	<path style="fill:#EC6A65;" d="M353.204,419.393c0-19.634-15.973-35.607-35.607-35.607s-35.607,15.973-35.607,35.607
		S297.963,455,317.597,455S353.204,439.026,353.204,419.393z"/>
	<path style="fill:#EC6A65;" d="M188.011,419.393c0-19.634-15.974-35.607-35.607-35.607s-35.607,15.973-35.607,35.607
		S132.77,455,152.403,455S188.011,439.026,188.011,419.393z"/>
	<path style="fill:#EC6A65;" d="M143.641,294.408c14.802,0,26.845-12.042,26.845-26.845c0-14.802-12.042-26.844-26.845-26.844
		c-14.802,0-26.844,12.042-26.844,26.844C116.796,282.365,128.839,294.408,143.641,294.408z"/>
	<path style="fill:#3D2A20;" d="M308.778,171.205c-2.882-2.975-7.629-3.051-10.605-0.168c-17.03,16.498-39.466,25.583-63.173,25.583
		c-23.707,0-46.143-9.086-63.173-25.583c-2.975-2.882-7.724-2.807-10.605,0.168c-2.882,2.975-2.807,7.723,0.168,10.605
		c19.844,19.224,45.986,29.81,73.61,29.81c27.625,0,53.767-10.587,73.61-29.81C311.585,178.928,311.661,174.18,308.778,171.205z"/>
	<path style="fill:#3D2A20;" d="M368.204,267.563v-21.521c0-11.238-4.392-22.83-12.05-31.803
		c-4.476-5.245-9.693-9.204-15.329-11.749c0.088-29.445,0.219-83.424,0.064-101.508c16.29-7.119,26.88-23.27,26.88-41.834
		c0-25.168-20.476-45.645-45.645-45.645c-8.671,0-17.145,2.484-24.41,7.082C279.623,7.271,257.575,0,235,0
		s-44.623,7.271-62.714,20.584c-7.265-4.598-15.739-7.082-24.41-7.082c-25.168,0-45.645,20.476-45.645,45.645
		c0,18.564,10.59,34.715,26.88,41.834c-0.155,18.085-0.024,72.063,0.064,101.508c-5.636,2.545-10.853,6.504-15.329,11.749
		c-7.658,8.974-12.05,20.565-12.05,31.803v21.521c0,17.997,11.42,33.374,27.394,39.271v28.455
		c-15.997,6.109-27.394,21.607-27.394,39.725v44.378c0,27.905,22.702,50.607,50.607,50.607c25.358,0,46.415-18.748,50.049-43.11
		h65.096c3.634,24.362,24.691,43.11,50.049,43.11c27.905,0,50.607-22.702,50.607-50.607v-44.378
		c0-18.118-11.397-33.616-27.394-39.725v-28.455C356.783,300.937,368.204,285.56,368.204,267.563z M325.691,332.501
		c-4.142,0-7.5,3.358-7.5,7.5s3.358,7.5,7.5,7.5c15.17,0,27.513,12.342,27.513,27.513v8.457
		c-9.151-9.072-21.734-14.686-35.607-14.686c-25.356,0-46.412,18.745-50.048,43.104h-65.097
		c-3.636-24.359-24.692-43.104-50.048-43.104c-13.873,0-26.456,5.614-35.607,14.686v-8.457c0-15.171,12.342-27.513,27.513-27.513
		c4.142,0,7.5-3.358,7.5-7.5s-3.358-7.5-7.5-7.5c-0.04,0-0.079,0.003-0.119,0.003v-23.11c22.82-0.297,41.295-18.942,41.295-41.831
		c0-23.073-18.771-41.844-41.845-41.844c-8.997,0-17.333,2.864-24.164,7.715c4.38-10.432,13.711-19.259,24.833-19.259
		c4.142,0,7.5-3.358,7.5-7.5s-3.358-7.5-7.5-7.5c-0.048,0-0.095,0.004-0.143,0.004c-0.12-42.009-0.207-98.774,0-102.8
		c0.292-3.544-1.951-6.817-5.378-7.815c-12.893-3.754-21.556-15.576-21.556-29.417c0-16.897,13.747-30.645,30.645-30.645
		c4.234,0,8.396,0.889,12.228,2.558c-7.179,7.182-13.259,15.326-18.139,24.309c-1.977,3.64-0.629,8.193,3.01,10.17
		c1.138,0.618,2.364,0.911,3.573,0.911c2.661,0,5.238-1.419,6.597-3.921c5.588-10.288,13.012-19.295,22.064-26.771
		C193.42,22.371,213.942,15,235,15c20.859,0,41.186,7.242,57.319,20.387c9.259,7.544,16.845,16.669,22.535,27.142
		c1.359,2.502,3.937,3.921,6.597,3.921c1.209,0,2.436-0.293,3.573-0.911c3.64-1.978,4.987-6.531,3.01-10.17
		c-4.886-8.993-10.979-17.123-18.156-24.301c3.837-1.674,8.005-2.566,12.245-2.566c16.897,0,30.645,13.747,30.645,30.645
		c0,13.841-8.663,25.663-21.556,29.417c-3.428,0.998-5.67,4.271-5.378,7.815c0.207,4.026,0.12,60.792,0,102.8
		c-0.048,0-0.095-0.004-0.143-0.004c-4.142,0-7.5,3.358-7.5,7.5s3.358,7.5,7.5,7.5c11.122,0,20.452,8.827,24.833,19.259
		c-6.831-4.851-15.167-7.715-24.164-7.715c-23.073,0-41.845,18.771-41.845,41.844c0,22.889,18.475,41.534,41.295,41.831v23.11
		C325.77,332.504,325.731,332.501,325.691,332.501z M281.989,419.393c0-19.634,15.974-35.607,35.607-35.607
		s35.607,15.973,35.607,35.607S337.23,455,317.597,455S281.989,439.026,281.989,419.393z M152.403,455
		c-19.634,0-35.607-15.974-35.607-35.607s15.973-35.607,35.607-35.607s35.607,15.973,35.607,35.607S172.037,455,152.403,455z
		 M143.641,240.719c14.802,0,26.845,12.042,26.845,26.844c0,14.802-12.042,26.845-26.845,26.845
		c-14.802,0-26.844-12.042-26.844-26.845C116.796,252.761,128.839,240.719,143.641,240.719z M326.359,294.408
		c-14.802,0-26.845-12.042-26.845-26.845c0-14.802,12.042-26.844,26.845-26.844c14.802,0,26.844,12.042,26.844,26.844
		C353.204,282.365,341.161,294.408,326.359,294.408z"/>
	<path style="fill:#FFFFFF;" d="M204.067,322.852c4.142,0,7.5-3.358,7.5-7.5v-40.419c0-12.921,10.512-23.433,23.433-23.433
		c4.142,0,7.5-3.358,7.5-7.5s-3.358-7.5-7.5-7.5c-21.192,0-38.433,17.241-38.433,38.433v40.419
		C196.567,319.494,199.925,322.852,204.067,322.852z"/>
	<path style="fill:#FFFFFF;" d="M265.933,337.852c-4.142,0-7.5,3.358-7.5,7.5c0,12.921-10.512,23.434-23.433,23.434
		s-23.433-10.512-23.433-23.434c0-4.142-3.358-7.5-7.5-7.5s-7.5,3.358-7.5,7.5c0,21.192,17.241,38.434,38.433,38.434
		s38.433-17.241,38.433-38.434C273.433,341.21,270.075,337.852,265.933,337.852z"/>
	<path style="fill:#3D2A20;" d="M212.27,133.456c-3.197-2.634-7.924-2.178-10.558,1.019c-2.634,3.197-2.178,7.924,1.019,10.558
		c9.069,7.473,20.529,11.588,32.27,11.588s23.201-4.115,32.27-11.588c3.197-2.634,3.653-7.361,1.019-10.558
		c-2.634-3.196-7.36-3.652-10.558-1.019c-4.432,3.652-9.675,6.163-15.23,7.36v-18.288c0-4.142-3.358-7.5-7.5-7.5s-7.5,3.358-7.5,7.5
		v18.288C221.944,139.619,216.702,137.108,212.27,133.456z"/>
	<path style="fill:#FFFFFF;" d="M168.02,90.718c0.808,0.278,1.629,0.409,2.438,0.409c3.114,0,6.024-1.955,7.092-5.064
		c6.049-17.602,20.169-31.722,37.771-37.771c3.917-1.346,6.001-5.613,4.655-9.53c-1.347-3.917-5.613-6.001-9.53-4.655
		c-21.941,7.54-39.542,25.141-47.082,47.082C162.018,85.105,164.103,89.372,168.02,90.718z"/>
</g>
<g>
</g>
<g>
</g>
<g>
</g>
<g>
</g>
<g>
</g>
<g>
</g>
<g>
</g>
<g>
</g>
<g>
</g>
<g>
</g>
<g>
</g>
<g>
</g>
<g>
</g>
<g>
</g>
<g>
</g>
</svg>
